<?xml version="1.0" encoding="utf-8"?>
<!-- Generator: Adobe Illustrator 26.5.0, SVG Export Plug-In . SVG Version: 6.00 Build 0)  -->
<svg version="1.1" id="Layer_1" xmlns="http://www.w3.org/2000/svg" xmlns:xlink="http://www.w3.org/1999/xlink" x="0px" y="0px"
	 viewBox="0 0 72 100" style="enable-background:new 0 0 72 100;" xml:space="preserve">
<g>
	<path d="M34,35.2V16.8l-4.6,4.6c-0.8,0.8-2,0.8-2.8,0c-0.8-0.8-0.8-2,0-2.8l8-8c0.8-0.8,2-0.8,2.8,0l8,8c0.8,0.8,0.8,2,0,2.8
		C45,21.8,44.5,22,44,22s-1-0.2-1.4-0.6L38,16.8v18.4l4.6-4.6c0.8-0.8,2-0.8,2.8,0c0.8,0.8,0.8,2,0,2.8l-8,8C37,41.8,36.5,42,36,42
		s-1-0.2-1.4-0.6l-8-8c-0.8-0.8-0.8-2,0-2.8c0.8-0.8,2-0.8,2.8,0L34,35.2z M72,36v28c0,19.8-16.1,36-36,36C16.2,100,0,83.8,0,64V50
		c0,0,0,0,0,0s0,0,0,0V36C0,16.1,16.2,0,36,0C55.9,0,72,16.1,72,36z M4,36v12h64V36C68,18.4,53.6,4,36,4S4,18.4,4,36z M68,64V52H4
		v12c0,17.6,14.4,32,32,32S68,81.6,68,64z"/>
</g>
</svg>
