<?xml version="1.0" encoding="UTF-8"?>
<svg id="Capa_1" xmlns="http://www.w3.org/2000/svg" version="1.1" viewBox="0 0 180.66 229.37">
  <!-- Generator: Adobe Illustrator 30.1.0, SVG Export Plug-In . SVG Version: 2.1.1 Build 136)  -->
  <defs>
    <style>
      .st0 {
        fill: #fff;
      }
    </style>
  </defs>
  <path d="M128.86,179.23c-19.12,18.73-57.04,18.68-75.99.86-8.46-7.95-13.59-18.45-13.61-30.42l-.13-66.99c-.02-10.89,4.36-20.75,11.53-28.78,18.29-20.47,49.42-23.24,71.46-7.22,12.95,9.41,19.35,23.15,19.38,39.01l.13,62.94c.02,11.91-4.36,22.38-12.77,30.6ZM97.55,64.49l.04,19.36c0,2.75-1.79,5.4-4.42,7.28l-.03,42.61c0,1.75-.96,3.97-2.28,4.18-1.48.24-3.24-1.68-3.24-3.33l-.18-43.43c-2.72-1.9-4.49-4.49-4.49-7.32l-.03-20.45c-.01-8.03,6.29-1,4.23-17.61-19.94,1.08-39.05,16.84-38.87,37.9l.59,68.97c.12,14.29,12.52,25.75,25.79,29.32,10.38,2.79,20.9,2.8,31.31.02,13.22-3.52,26.01-14.9,26.01-29.27l-.02-71.97c0-17.95-20.09-34.7-38.73-35.09-2.23,16.8,4.28,8.89,4.3,18.82Z"/>
  <path d="M30.55,134.21c1.11,1.11.85,4.96-.06,6.08-1.05,1.27-5.04,1.8-6.28.58L1.48,118.4c-1.56-1.54-2.14-5.24-.51-6.88l22.16-22.25c1.45-1.45,4.87-1.38,6.18-.21,1.76,1.55,2.13,4.84.29,6.7l-18.7,18.91,19.63,19.55Z"/>
  <path d="M157.22,140.36c-1.32,1.32-4.81.86-5.91-.07-1.21-1.02-2.18-4.69-.81-6.09l19.23-19.55-19.74-19.71c-1.05-1.05-.77-4.71.13-5.86s4.88-2,6.26-.63l23.32,23c1.31,1.29,1.19,5.18.02,6.36l-22.51,22.57Z"/>
  <path d="M109.79,30.04l-19.11-19.1-19.22,19.07c-1.36,1.35-4.28,1.67-5.89.88s-2.8-5.1-1.45-6.46L86.53,1.84c2.64-2.66,5.71-2.31,8.27.26l21.01,21.06c1.32,1.32,1.47,4.81.55,6.13-1.02,1.46-5.11,2.2-6.56.75Z"/>
  <path d="M86.42,227.86l-22.03-22.19c-1.23-1.24-.8-5.15.45-6.19,1.35-1.12,5.05-1.21,6.35.08l18.9,18.88,19.11-19.15c1.25-1.25,4.4-1.59,5.9-.87s2.81,5.15,1.49,6.47l-23.49,23.59c-1.57,1.58-5.23.81-6.67-.64Z"/>
  <path class="st0" d="M97.55,64.49c-.02-9.93-6.53-2.01-4.3-18.82,18.64.39,38.72,17.14,38.73,35.09l.02,71.97c0,14.37-12.79,25.74-26.01,29.27-10.41,2.78-20.93,2.77-31.31-.02-13.27-3.57-25.67-15.03-25.79-29.32l-.59-68.97c-.18-21.06,18.93-36.82,38.87-37.9,2.05,16.61-4.24,9.59-4.23,17.61l.03,20.45c0,2.83,1.77,5.42,4.49,7.32l.18,43.43c0,1.65,1.76,3.56,3.24,3.33,1.32-.21,2.28-2.43,2.28-4.18l.03-42.61c2.63-1.88,4.43-4.53,4.42-7.28l-.04-19.36Z"/>
</svg>