<?xml version="1.0" encoding="UTF-8"?>
<svg id="Capa_1" xmlns="http://www.w3.org/2000/svg" version="1.1" viewBox="0 0 102.51 157.02">
  <!-- Generator: Adobe Illustrator 30.1.0, SVG Export Plug-In . SVG Version: 2.1.1 Build 136)  -->
  <defs>
    <style>
      .st0 {
        fill: #fff;
      }
    </style>
  </defs>
  <path d="M89.74,142.88c-19.12,18.73-57.04,18.68-75.99.86C5.28,135.79.15,125.29.13,113.32L0,46.33c-.02-10.89,4.36-20.75,11.53-28.78C29.82-2.92,60.96-5.69,82.99,10.33c12.95,9.41,19.35,23.15,19.38,39.01l.13,62.94c.02,11.91-4.36,22.38-12.77,30.6ZM58.42,28.15l.04,19.36c0,2.75-1.79,5.4-4.42,7.28l-.03,42.61c0,1.75-.96,3.97-2.28,4.18-1.48.24-3.24-1.68-3.24-3.33l-.18-43.43c-2.72-1.9-4.49-4.49-4.49-7.32l-.03-20.45c-.01-8.03,6.29-1,4.23-17.61C28.09,10.52,8.98,26.28,9.16,47.34l.59,68.97c.12,14.29,12.52,25.75,25.79,29.32,10.38,2.79,20.9,2.8,31.31.02,13.22-3.52,26.01-14.9,26.01-29.27l-.02-71.97c0-17.95-20.09-34.7-38.73-35.09-2.23,16.8,4.28,8.89,4.3,18.82Z"/>
  <path class="st0" d="M58.42,28.15c-.02-9.93-6.53-2.01-4.3-18.82,18.64.39,38.72,17.14,38.73,35.09l.02,71.97c0,14.37-12.79,25.74-26.01,29.27-10.41,2.78-20.93,2.77-31.31-.02-13.27-3.57-25.67-15.03-25.79-29.32l-.59-68.97c-.18-21.06,18.93-36.82,38.87-37.9,2.05,16.61-4.24,9.59-4.23,17.61l.03,20.45c0,2.83,1.77,5.42,4.49,7.32l.18,43.43c0,1.65,1.76,3.56,3.24,3.33,1.32-.21,2.28-2.43,2.28-4.18l.03-42.61c2.63-1.88,4.43-4.53,4.42-7.28l-.04-19.36Z"/>
</svg>