<svg xmlns="http://www.w3.org/2000/svg" xmlns:xlink="http://www.w3.org/1999/xlink" version="1.1" x="0px" y="0px" viewBox="0 0 100 125" enable-background="new 0 0 100 100" xml:space="preserve"><path fill="#000000" d="M758.602,764.234c-0.013,0.001-0.025,0.003-0.037,0.004c-1.249-2.383-3.743-4.012-6.621-4.012  c-0.384,0-0.758,0.035-1.126,0.091c-1.131-0.688-2.453-1.091-3.874-1.091c-1.265,0-2.455,0.317-3.5,0.872  c-1.045-0.555-2.235-0.872-3.5-0.872c-4.129,0-7.475,3.347-7.475,7.475c0,3.65,2.618,6.685,6.077,7.34  c-0.17-4.078,0.363-6.875,2.398-7.34c0.973-0.222,2.12,1.257,3.293,3.597l0,0c0,0,2.147-6.717,5.625-0.431  c0.101,0.182-0.101-0.196-0.226-0.419c0.137-0.087,2.549-1.587,4.552-0.906c0.888,0.805,2.027,2.262,3.299,4.161  c0.318-0.352,0.6-0.735,0.847-1.142c0.382,0.087,0.957,0.279,1.899,0.2c0.846-0.07,2.48,1.831,4.426,4.74  c1.167-1.385,1.841-3.19,1.751-5.143C766.222,767.235,762.726,764.045,758.602,764.234z"/><path fill="#000000" d="M285.226,782.938c-8.722-0.382-15.554-7.515-15.554-16.237c0-8.972,7.3-16.271,16.272-16.271  s16.271,7.3,16.271,16.271c0,5.645-2.873,10.805-7.684,13.804l-1.587-2.545c3.927-2.448,6.271-6.657,6.271-11.259  c0-7.318-5.954-13.271-13.271-13.271c-7.318,0-13.272,5.953-13.272,13.271c0,7.112,5.572,12.929,12.685,13.239L285.226,782.938z"/><path fill="#000000" d="M173.719,808.098c-0.828,0-1.5-0.672-1.5-1.5c0-0.083-0.02-8.449-1.536-18.845l-0.206-1.406  c-1.699-11.583-2.926-19.951,2.131-21.107c2.25-0.518,4.554,1.548,8.476,13.288c2.14,6.405,3.824,13.006,3.84,13.072  c0.204,0.803-0.281,1.619-1.084,1.823c-0.805,0.202-1.62-0.281-1.823-1.084c-2.726-10.72-6.903-22.765-8.916-24.115  c-2.104,0.992-0.693,10.613,0.344,17.688l0.207,1.408c1.549,10.625,1.567,18.93,1.567,19.278  C175.219,807.426,174.548,808.098,173.719,808.098z"/><path fill="#000000" d="M194.112,791.917c-0.546,0-1.073-0.299-1.338-0.819c-2.784-5.468-6.072-10.464-7.308-11.13  c-0.994,0.271-2.411,2.45-3.051,3.946c-0.326,0.761-1.21,1.11-1.969,0.788c-0.762-0.326-1.115-1.208-0.789-1.97  c0.392-0.914,2.505-5.49,5.674-5.778c2.29-0.229,5.693,4.093,10.117,12.782c0.375,0.738,0.082,1.642-0.656,2.018  C194.573,791.864,194.341,791.917,194.112,791.917z"/><path fill="#000000" d="M188.878,836.602l-0.598-1.531c-0.009-0.022-1.113-2.736-3.636-4.389  c-4.019-2.541-24.172-15.618-24.172-22.312c0-6.904,9.737-14.93,13.112-15.235l0.271,2.988c-1.755,0.193-10.382,6.834-10.382,12.247  c0,3.711,13.331,13.806,22.796,19.789c2.029,1.328,3.337,3.116,4.069,4.358l19.828-9.913c-0.917-1.688-2.149-4.527-1.804-7.118  c0.714-6.232,0.976-13.746,0.221-14.954c-2.084-3.276-12.107-15.199-14.448-15.925c-1.018,0.117-1.22,0.649-1.249,0.964  l-2.997-0.129c0.036-1.211,0.938-3.571,4.098-3.835c4.2-0.352,17.013,17.136,17.127,17.313c1.704,2.678,0.603,13.639,0.225,16.935  c-0.303,2.273,1.476,5.476,2.187,6.52l0.966,1.419L188.878,836.602z"/><path fill="#000000" d="M173.719,968.098c-0.828,0-1.5-0.672-1.5-1.5c0-0.083-0.02-8.449-1.536-18.845l-0.206-1.406  c-1.699-11.583-2.926-19.951,2.131-21.107c2.25-0.521,4.554,1.547,8.476,13.288c2.14,6.405,3.824,13.006,3.84,13.072  c0.204,0.803-0.281,1.619-1.084,1.823c-0.805,0.203-1.62-0.282-1.823-1.084c-2.726-10.72-6.903-22.765-8.916-24.115  c-2.104,0.992-0.693,10.613,0.344,17.688l0.207,1.408c1.549,10.625,1.567,18.93,1.567,19.278  C175.219,967.426,174.548,968.098,173.719,968.098z"/><path fill="#000000" d="M194.112,951.917c-0.546,0-1.073-0.299-1.338-0.819c-2.784-5.468-6.072-10.464-7.308-11.13  c-0.994,0.271-2.411,2.45-3.051,3.946c-0.326,0.761-1.21,1.111-1.969,0.788c-0.762-0.326-1.115-1.208-0.789-1.97  c0.392-0.914,2.505-5.49,5.674-5.778c2.29-0.235,5.693,4.093,10.117,12.782c0.375,0.738,0.082,1.642-0.656,2.018  C194.573,951.864,194.341,951.917,194.112,951.917z"/><path fill="#000000" d="M188.878,996.602l-0.598-1.531c-0.009-0.022-1.113-2.736-3.636-4.389  c-4.019-2.541-24.172-15.618-24.172-22.312c0-6.904,9.737-14.93,13.112-15.235l0.271,2.988c-1.755,0.193-10.382,6.834-10.382,12.247  c0,3.711,13.331,13.806,22.796,19.789c2.029,1.328,3.337,3.116,4.069,4.358l19.828-9.913c-0.917-1.688-2.149-4.527-1.804-7.118  c0.714-6.232,0.976-13.746,0.221-14.954c-2.084-3.276-12.107-15.199-14.448-15.925c-1.018,0.117-1.22,0.649-1.249,0.964  l-2.997-0.129c0.036-1.211,0.938-3.571,4.098-3.835c4.2-0.338,17.013,17.136,17.127,17.313c1.704,2.678,0.603,13.639,0.225,16.935  c-0.303,2.273,1.476,5.476,2.187,6.52l0.966,1.419L188.878,996.602z"/><path fill="#000000" d="M287.719,808.098c-0.828,0-1.5-0.672-1.5-1.5c0-0.083-0.02-8.449-1.536-18.845l-0.206-1.406  c-1.699-11.583-2.926-19.951,2.131-21.107c2.25-0.518,4.554,1.548,8.476,13.288c2.14,6.405,3.824,13.006,3.84,13.072  c0.204,0.803-0.281,1.619-1.084,1.823c-0.805,0.202-1.62-0.281-1.823-1.084c-2.726-10.72-6.903-22.765-8.916-24.115  c-2.104,0.992-0.693,10.613,0.344,17.688l0.207,1.408c1.549,10.625,1.567,18.93,1.567,19.278  C289.219,807.426,288.548,808.098,287.719,808.098z"/><path fill="#000000" d="M308.112,791.917c-0.546,0-1.073-0.299-1.338-0.819c-2.784-5.468-6.072-10.464-7.308-11.13  c-0.994,0.271-2.411,2.45-3.051,3.946c-0.327,0.761-1.211,1.11-1.969,0.788c-0.762-0.326-1.115-1.208-0.789-1.97  c0.392-0.914,2.505-5.49,5.674-5.778c2.285-0.229,5.693,4.093,10.117,12.782c0.375,0.738,0.082,1.642-0.656,2.018  C308.573,791.864,308.341,791.917,308.112,791.917z"/><path fill="#000000" d="M302.878,836.602l-0.598-1.531c-0.009-0.022-1.113-2.736-3.636-4.389  c-4.019-2.541-24.172-15.618-24.172-22.312c0-6.904,9.737-14.93,13.112-15.235l0.271,2.988c-1.755,0.193-10.382,6.834-10.382,12.247  c0,3.711,13.331,13.806,22.796,19.789c2.029,1.328,3.337,3.116,4.069,4.358l19.828-9.913c-0.917-1.688-2.149-4.527-1.804-7.118  c0.714-6.232,0.976-13.746,0.221-14.954c-2.084-3.276-12.107-15.199-14.448-15.925c-1.018,0.117-1.22,0.649-1.249,0.964  l-2.997-0.129c0.036-1.211,0.938-3.571,4.098-3.835c4.188-0.352,17.013,17.136,17.127,17.313c1.704,2.678,0.603,13.639,0.225,16.935  c-0.303,2.273,1.476,5.476,2.187,6.52l0.966,1.419L302.878,836.602z"/><path fill="#000000" d="M401.719,808.098c-0.828,0-1.5-0.672-1.5-1.5c0-0.083-0.02-8.449-1.536-18.845l-0.206-1.406  c-1.699-11.583-2.926-19.951,2.131-21.107c2.248-0.518,4.554,1.548,8.476,13.288c2.14,6.405,3.824,13.006,3.84,13.072  c0.204,0.803-0.281,1.619-1.084,1.823c-0.806,0.202-1.62-0.281-1.823-1.084c-2.726-10.72-6.903-22.765-8.916-24.115  c-2.104,0.992-0.693,10.613,0.344,17.688l0.207,1.408c1.549,10.625,1.567,18.93,1.567,19.278  C403.219,807.426,402.548,808.098,401.719,808.098z"/><path fill="#000000" d="M416.878,836.602l-0.598-1.531c-0.009-0.022-1.113-2.736-3.636-4.389  c-4.019-2.541-24.172-15.618-24.172-22.312c0-6.904,9.737-14.93,13.112-15.235l0.271,2.988c-1.755,0.193-10.382,6.834-10.382,12.247  c0,3.711,13.331,13.806,22.796,19.789c2.029,1.328,3.337,3.116,4.069,4.358l19.828-9.913c-0.917-1.688-2.149-4.527-1.804-7.118  c0.714-6.232,0.976-13.746,0.221-14.954c-2.084-3.276-12.107-15.199-14.449-15.925c-1.728,0.194-2.566,1.583-2.602,1.644  l-2.609-1.48c0.065-0.117,1.649-2.878,5.064-3.163c4.177-0.352,17.014,17.136,17.127,17.313c1.704,2.678,0.603,13.639,0.225,16.935  c-0.303,2.273,1.476,5.476,2.187,6.52l0.966,1.419L416.878,836.602z"/><path fill="#000000" d="M421.234,793.409c-0.581,0-1.133-0.339-1.378-0.906c-2.371-5.5-4.338-8.968-6.242-12.322  c-1.446-2.548-2.94-5.182-4.586-8.656c-1.274-2.691-2.055-2.851-2.063-2.852c-0.32,0.073-1.007,1.163-1.3,2.081  c-0.252,0.79-1.098,1.227-1.885,0.973c-0.789-0.251-1.225-1.096-0.973-1.885c0.212-0.665,1.4-3.991,3.966-4.163  c2.701-0.154,4.411,3.389,4.966,4.561c1.599,3.375,3,5.846,4.485,8.461c1.943,3.425,3.952,6.965,6.387,12.615  c0.328,0.761-0.023,1.644-0.784,1.972C421.634,793.37,421.432,793.409,421.234,793.409z"/><path fill="#000000" d="M512.72,808.098c-0.828,0-1.5-0.672-1.5-1.5c0-0.083-0.02-8.449-1.536-18.845l-0.206-1.41  c-1.698-11.58-2.926-19.948,2.132-21.104c2.25-0.51,4.554,1.548,8.476,13.288c2.14,6.405,3.823,13.006,3.841,13.072  c0.204,0.803-0.281,1.619-1.085,1.823c-0.8,0.202-1.619-0.281-1.823-1.084c-2.726-10.72-6.902-22.765-8.915-24.115  c-2.104,0.992-0.694,10.611,0.343,17.685l0.207,1.411c1.55,10.624,1.567,18.93,1.567,19.278  C514.22,807.426,513.548,808.098,512.72,808.098z"/><path fill="#000000" d="M527.878,836.602l-0.598-1.532c-0.009-0.021-1.112-2.735-3.636-4.388  c-4.02-2.541-24.173-15.618-24.173-22.312c0-6.905,9.737-14.93,13.113-15.235l0.27,2.988c-1.755,0.193-10.383,6.834-10.383,12.247  c0,3.711,13.331,13.806,22.797,19.789c2.028,1.328,3.337,3.115,4.068,4.358l19.828-9.913c-0.918-1.688-2.149-4.527-1.805-7.118  c0.715-6.232,0.977-13.746,0.222-14.954c-0.485-0.764-1.26-2.424-2.331-4.722c-1.639-3.515-5.431-11.646-7.046-12.702  c-2.007,0.216-3.167,1.064-3.179,1.073l-1.831-2.376c0.19-0.148,1.947-1.455,4.964-1.707c2.586-0.221,4.98,4.084,9.811,14.444  c0.906,1.944,1.763,3.78,2.144,4.378c1.704,2.678,0.603,13.639,0.225,16.935c-0.305,2.287,1.475,5.479,2.187,6.519l0.971,1.419  L527.878,836.602z"/><path fill="#000000" d="M532.234,793.409c-0.581,0-1.134-0.339-1.379-0.906c-2.369-5.499-4.337-8.966-6.24-12.319  c-1.445-2.549-2.941-5.185-4.587-8.66c-1.274-2.69-2.055-2.85-2.063-2.851c-0.29,0.066-0.97,1.063-1.302,2.084  c-0.256,0.788-1.102,1.219-1.887,0.967c-0.787-0.253-1.222-1.094-0.97-1.882c0.212-0.665,1.399-3.991,3.965-4.163  c0.067-0.004,0.135-0.006,0.2-0.006c2.604,0,4.225,3.423,4.767,4.566c1.599,3.376,3.001,5.847,4.485,8.464  c1.942,3.423,3.951,6.963,6.387,12.612c0.327,0.761-0.023,1.644-0.784,1.972C532.634,793.37,532.433,793.409,532.234,793.409z"/><path fill="#000000" d="M537.796,791.425c-0.572,0-1.118-0.328-1.368-0.884c-5.183-11.503-10.896-20.179-12.595-21.179  c-1.087,0.194-1.628,1.171-1.633,1.182c-0.373,0.74-1.276,1.036-2.016,0.662s-1.036-1.276-0.662-2.016  c0.486-0.962,1.928-2.643,4.246-2.842c0.042-0.004,0.085-0.006,0.128-0.006c4.862,0,15.162,22.734,15.266,22.966  c0.341,0.756,0.004,1.644-0.751,1.983C538.211,791.383,538.002,791.425,537.796,791.425z"/><path fill="#000000" d="M623.72,808.098c-0.828,0-1.5-0.672-1.5-1.5c0-0.083-0.02-8.449-1.536-18.845l-0.206-1.41  c-1.698-11.58-2.926-19.948,2.132-21.104c2.255-0.51,4.554,1.548,8.476,13.288c2.14,6.405,3.823,13.006,3.841,13.072  c0.204,0.803-0.281,1.619-1.085,1.823c-0.797,0.202-1.619-0.281-1.823-1.084c-2.726-10.72-6.902-22.765-8.915-24.115  c-2.104,0.992-0.694,10.611,0.343,17.685l0.207,1.411c1.55,10.624,1.567,18.93,1.567,19.278  C625.22,807.426,624.548,808.098,623.72,808.098z"/><path fill="#000000" d="M638.878,836.602l-0.598-1.532c-0.009-0.021-1.112-2.735-3.636-4.388  c-4.02-2.541-24.173-15.618-24.173-22.312c0-6.905,9.737-14.93,13.113-15.235l0.27,2.988c-1.755,0.193-10.383,6.834-10.383,12.247  c0,3.711,13.331,13.806,22.797,19.789c2.028,1.328,3.337,3.115,4.068,4.358l19.828-9.913c-0.918-1.688-2.149-4.527-1.805-7.118  c0.42-5.287,0.733-13.579,0.092-15.211c-3.71-9.433-12.841-25.5-15.306-26.995c-1.207,0.175-1.328,0.885-1.329,0.892l-2.979-0.363  c0.137-1.113,1.204-3.286,4.27-3.542c0.038-0.003,0.077-0.005,0.116-0.005c5.049,0,17.046,26.442,18.019,28.916  c1.128,2.867,0.281,14.353,0.1,16.626c-0.31,2.339,1.47,5.53,2.182,6.57l0.971,1.419L638.878,836.602z"/><path fill="#000000" d="M643.234,793.409c-0.581,0-1.134-0.339-1.379-0.906c-2.369-5.499-4.337-8.966-6.24-12.319  c-1.445-2.549-2.941-5.185-4.587-8.66c-1.274-2.69-2.055-2.85-2.063-2.851c-0.29,0.066-0.97,1.063-1.302,2.084  c-0.256,0.788-1.1,1.219-1.887,0.967c-0.787-0.253-1.222-1.094-0.97-1.882c0.212-0.665,1.399-3.991,3.965-4.163  c0.067-0.004,0.135-0.006,0.2-0.006c2.604,0,4.225,3.423,4.767,4.566c1.599,3.376,3.001,5.847,4.485,8.464  c1.942,3.423,3.951,6.963,6.387,12.612c0.327,0.761-0.023,1.644-0.784,1.972C643.634,793.37,643.433,793.409,643.234,793.409z"/><path fill="#000000" d="M648.796,791.425c-0.572,0-1.118-0.328-1.368-0.884c-5.183-11.503-10.896-20.179-12.595-21.179  c-1.087,0.194-1.628,1.171-1.633,1.182c-0.373,0.74-1.276,1.036-2.016,0.662s-1.036-1.276-0.662-2.016  c0.486-0.962,1.928-2.643,4.246-2.842c0.042-0.004,0.085-0.006,0.128-0.006c4.862,0,15.162,22.734,15.266,22.966  c0.341,0.756,0.004,1.644-0.751,1.983C649.211,791.383,649.002,791.425,648.796,791.425z"/><path fill="#000000" d="M755.878,836.602l-0.598-1.532c-0.009-0.021-1.112-2.735-3.636-4.388  c-2.296-1.565-22.299-15.333-24.775-21.307c-1.069-2.577-2.492-5.1-3.747-7.324c-2.078-3.683-3.45-6.116-2.929-7.937  c0.189-0.661,0.609-1.185,1.215-1.515c3.314-1.804,6.281-1.527,10.837,5.42c2.899,4.423,5.113,5.729,6.93,6.434  c-0.102-3.144-0.43-9.425-1.491-16.7l-0.206-1.41c-1.698-11.58-2.926-19.948,2.132-21.104c2.254-0.51,4.554,1.548,8.476,13.288  c2.14,6.405,3.823,13.006,3.841,13.072c0.204,0.803-0.281,1.619-1.084,1.823c-0.806,0.202-1.62-0.281-1.824-1.084  c-2.726-10.72-6.902-22.765-8.915-24.115c-2.104,0.992-0.694,10.611,0.343,17.685l0.097,1.411c1.55,10.624,1.458,18.93,1.458,19.278  v2.226l-1.953-0.835c-0.291-0.118-0.546-0.222-0.874-0.332c-2.305-0.779-5.434-1.846-9.465-7.992  c-3.743-5.708-5.206-5.316-6.638-4.561c0.11,0.972,1.573,3.553,2.656,5.473c1.298,2.299,2.771,4.905,3.91,7.65  c1.618,3.903,15.045,14.076,23.673,19.961c2.002,1.311,3.3,3.09,4.028,4.329l19.827-9.912c-0.918-1.688-2.149-4.527-1.805-7.118  c0.42-5.287,0.734-13.579,0.092-15.211c-3.71-9.433-12.841-25.5-15.306-26.995c-1.094,0.157-1.299,0.753-1.337,0.94  c-0.1,0.821-0.839,1.381-1.667,1.282c-0.822-0.1-1.404-0.872-1.304-1.694c0.137-1.113,1.204-3.286,4.27-3.542  c4.936-0.393,17.154,26.419,18.135,28.911c1.128,2.867,0.281,14.353,0.1,16.626c-0.308,2.325,1.472,5.527,2.183,6.571l0.965,1.419  L755.878,836.602z"/><path fill="#000000" d="M760.234,793.409c-0.581,0-1.134-0.339-1.379-0.906c-2.369-5.499-4.337-8.966-6.24-12.319  c-1.445-2.549-2.941-5.185-4.587-8.66c-1.274-2.69-2.055-2.85-2.063-2.851c-0.29,0.066-0.97,1.063-1.302,2.084  c-0.256,0.788-1.102,1.219-1.887,0.967c-0.787-0.253-1.222-1.094-0.97-1.882c0.212-0.665,1.399-3.991,3.965-4.163  c0.067-0.004,0.135-0.006,0.2-0.006c2.604,0,4.225,3.423,4.767,4.566c1.599,3.376,3.001,5.847,4.485,8.464  c1.942,3.423,3.951,6.963,6.387,12.612c0.327,0.761-0.023,1.644-0.784,1.972C760.634,793.37,760.433,793.409,760.234,793.409z"/><path fill="#000000" d="M765.796,791.425c-0.572,0-1.118-0.328-1.368-0.884c-5.183-11.503-10.896-20.179-12.595-21.179  c-1.087,0.194-1.628,1.171-1.633,1.182c-0.372,0.74-1.275,1.036-2.016,0.662c-0.739-0.374-1.036-1.276-0.662-2.016  c0.486-0.962,1.928-2.643,4.246-2.842c0.042-0.004,0.085-0.006,0.128-0.006c4.862,0,15.162,22.734,15.266,22.966  c0.341,0.756,0.004,1.644-0.751,1.983C766.211,791.383,766.002,791.425,765.796,791.425z"/><path fill="#000000" d="M315.878,996.602l-0.598-1.531c-0.009-0.022-1.113-2.736-3.636-4.389  c-2.184-1.488-21.214-14.584-23.906-20.814c-1.4-3.238-3.561-4.793-5.139-5.928c-1.336-0.961-2.491-1.791-2.577-3.255  c-0.064-1.094,0.5-2.154,1.59-2.986c1.625-1.243,4.77-2.106,7.837-1.075c2.592,0.874,5.187,3.22,7.697,5.489  c2.506,2.266,5.624,5.082,7.061,4.392c2.252-1.084,3.629-10.352,2.038-23.984c-1.015-8.688-0.223-15.83,2.018-18.195  c0.831-0.877,1.71-1.015,2.3-0.98c3.97,0.244,5.223,3.701,6.044,9.591c0.389,2.79,1.092,6.176,1.907,9.408  c0.662-0.373,1.479-0.652,2.471-0.735c4.181-0.338,17.013,17.136,17.127,17.313c1.704,2.678,0.603,13.639,0.225,16.935  c-0.303,2.273,1.476,5.476,2.187,6.52l0.966,1.419L315.878,996.602z M283.052,960.473c0.217,0.253,0.834,0.697,1.3,1.031  c1.757,1.264,4.412,3.173,6.141,7.174c1.988,4.602,17.146,15.644,22.819,19.51c2.001,1.311,3.299,3.09,4.027,4.329l19.826-9.912  c-0.917-1.688-2.149-4.527-1.804-7.118c0.714-6.232,0.976-13.746,0.221-14.954c-2.084-3.276-12.108-15.2-14.449-15.925  c-0.984,0.108-1.515,0.552-1.776,0.878c0.921,3.243,1.893,6.033,2.67,7.468c0.395,0.729,0.124,1.64-0.604,2.034  c-0.728,0.395-1.639,0.123-2.033-0.604c-2.136-3.944-4.846-14.546-5.751-21.034c-0.927-6.649-2.152-6.936-3.159-7.004  c-0.879,0.669-2.407,5.938-1.252,15.827c0.655,5.607,2.322,24.129-3.715,27.035c-3.254,1.57-6.713-1.559-10.375-4.869  c-2.283-2.063-4.643-4.197-6.643-4.871c-1.831-0.617-3.644-0.198-4.64,0.346C283.355,960.086,283.131,960.344,283.052,960.473z"/><path fill="#000000" d="M299.807,967.849c-0.036,0-0.072-0.001-0.108-0.004c-0.827-0.06-1.448-0.776-1.389-1.604  c0.025-0.347,0.622-8.538,1.889-12.338c1.473-4.42,7.544-5.816,7.802-5.873c0.811-0.176,1.611,0.329,1.79,1.139  c0.179,0.808-0.329,1.607-1.136,1.789l0,0c-1.297,0.294-4.834,1.566-5.61,3.895c-1.147,3.441-1.737,11.522-1.743,11.604  C301.245,967.245,300.587,967.849,299.807,967.849z"/><path fill="#000000" d="M435.878,996.602l-0.598-1.531c-0.009-0.022-1.113-2.736-3.636-4.389  c-2.184-1.488-21.214-14.584-23.906-20.814c-1.4-3.238-3.561-4.793-5.139-5.928c-1.336-0.961-2.491-1.791-2.577-3.255  c-0.064-1.094,0.5-2.154,1.59-2.986c1.625-1.243,4.771-2.106,7.837-1.075c2.592,0.874,5.187,3.22,7.697,5.489  c2.505,2.266,5.625,5.082,7.061,4.392c2.974-1.432,3.278-3.551,2.038-14.176c-0.517-4.425-3.604-5.496-8.253-6.627  c-3.221-0.782-6.871-1.67-6.912-5.434c-0.022-2.033,1.209-3.728,3.468-4.77c5.009-2.308,14.987-1.373,20.345,3.297  c1.37,1.195,2.389,2.499,3.176,3.829c0.728-0.511,1.688-0.914,2.916-1.017c4.167-0.338,17.014,17.136,17.127,17.313  c1.704,2.678,0.603,13.639,0.225,16.935c-0.305,2.287,1.475,5.479,2.186,6.519l0.972,1.419L435.878,996.602z M403.052,960.473  c0.217,0.253,0.834,0.697,1.3,1.031c1.757,1.264,4.412,3.173,6.141,7.174c1.988,4.602,17.146,15.644,22.819,19.51  c2.001,1.311,3.299,3.09,4.027,4.329l19.826-9.912c-0.917-1.688-2.149-4.527-1.804-7.118c0.714-6.232,0.976-13.746,0.221-14.954  c-2.084-3.276-12.108-15.2-14.449-15.925c-0.913,0.1-1.435,0.489-1.715,0.805c0.501,1.271,0.867,2.513,1.203,3.654  c0.428,1.455,0.833,2.829,1.406,3.887c0.395,0.729,0.124,1.64-0.604,2.034s-1.639,0.123-2.033-0.604  c-0.724-1.337-1.172-2.858-1.646-4.469c-0.389-1.322-0.784-2.664-1.344-3.971c-0.026-0.051-0.049-0.104-0.069-0.158  c-0.738-1.678-1.761-3.293-3.407-4.729c-4.334-3.779-13.035-4.716-17.116-2.834c-1.738,0.802-1.729,1.713-1.725,2.012  c0.013,1.226,1.165,1.712,4.62,2.552c4.105,0.998,9.727,2.364,10.524,9.194c1.153,9.871,1.477,14.727-3.715,17.227  c-3.254,1.57-6.713-1.559-10.375-4.869c-2.283-2.063-4.643-4.197-6.643-4.871c-1.832-0.617-3.643-0.198-4.64,0.346  C403.355,960.086,403.131,960.344,403.052,960.473z"/><path fill="#000000" d="M419.807,967.849c-0.036,0-0.072-0.001-0.108-0.004c-0.827-0.06-1.448-0.776-1.389-1.604  c0.025-0.347,0.622-8.538,1.889-12.338c1.482-4.449,6.167-5.386,6.366-5.424c0.818-0.15,1.599,0.38,1.753,1.194  c0.154,0.811-0.376,1.594-1.186,1.752c-0.137,0.027-3.17,0.672-4.088,3.427c-1.147,3.441-1.737,11.522-1.743,11.604  C421.245,967.245,420.587,967.849,419.807,967.849z"/><path fill="#000000" d="M172.944,766.701c1.278-0.292,2.857,2.358,4.399,6.034c1.862-1.36,3.076-3.553,3.076-6.034  c0-4.129-3.347-7.475-7.475-7.475c-4.129,0-7.475,3.347-7.475,7.475c0,3.284,2.121,6.067,5.065,7.071  C170.398,769.839,170.953,767.156,172.944,766.701z"/><path fill="#000000" d="M286.944,766.701c1.206-0.276,2.68,2.065,4.139,5.419c1.436-1.362,2.336-3.284,2.336-5.419  c0-4.129-3.347-7.475-7.475-7.475c-4.129,0-7.475,3.347-7.475,7.475c0,3.65,2.618,6.685,6.077,7.34  C284.375,769.963,284.908,767.166,286.944,766.701z"/><path fill="#000000" d="M401.719,808.098c-0.828,0-1.5-0.672-1.5-1.5c0-0.083-0.02-8.449-1.536-18.845l-0.206-1.406  c-1.699-11.583-2.926-19.951,2.131-21.107c2.248-0.518,4.554,1.548,8.476,13.288c2.14,6.405,3.824,13.006,3.84,13.072  c0.204,0.803-0.281,1.619-1.084,1.823c-0.806,0.202-1.62-0.281-1.823-1.084c-2.726-10.72-6.903-22.765-8.916-24.115  c-2.104,0.992-0.693,10.613,0.344,17.688l0.207,1.408c1.549,10.625,1.567,18.93,1.567,19.278  C403.219,807.426,402.548,808.098,401.719,808.098z"/><path fill="#000000" d="M421.234,793.409c-0.581,0-1.133-0.339-1.378-0.906c-2.371-5.5-4.338-8.968-6.242-12.322  c-1.446-2.548-2.94-5.182-4.586-8.656c-1.274-2.691-2.055-2.851-2.063-2.852c-0.32,0.073-1.007,1.163-1.3,2.081  c-0.252,0.79-1.098,1.227-1.885,0.973c-0.789-0.251-1.225-1.096-0.973-1.885c0.212-0.665,1.4-3.991,3.966-4.163  c2.701-0.154,4.411,3.389,4.966,4.561c1.599,3.375,3,5.846,4.485,8.461c1.943,3.425,3.952,6.965,6.387,12.615  c0.328,0.761-0.023,1.644-0.784,1.972C421.634,793.37,421.432,793.409,421.234,793.409z"/><path fill="#000000" d="M401.719,808.098c-0.828,0-1.5-0.672-1.5-1.5c0-0.083-0.02-8.449-1.536-18.845l-0.206-1.406  c-1.699-11.583-2.926-19.951,2.131-21.107c2.248-0.518,4.554,1.548,8.476,13.288c2.14,6.405,3.824,13.006,3.84,13.072  c0.204,0.803-0.281,1.619-1.084,1.823c-0.806,0.202-1.62-0.281-1.823-1.084c-2.726-10.72-6.903-22.765-8.916-24.115  c-2.104,0.992-0.693,10.613,0.344,17.688l0.207,1.408c1.549,10.625,1.567,18.93,1.567,19.278  C403.219,807.426,402.548,808.098,401.719,808.098z"/><path fill="#000000" d="M421.234,793.409c-0.581,0-1.133-0.339-1.378-0.906c-2.371-5.5-4.338-8.968-6.242-12.322  c-1.446-2.548-2.94-5.182-4.586-8.656c-1.274-2.691-2.055-2.851-2.063-2.852c-0.32,0.073-1.007,1.163-1.3,2.081  c-0.252,0.79-1.098,1.227-1.885,0.973c-0.789-0.251-1.225-1.096-0.973-1.885c0.212-0.665,1.4-3.991,3.966-4.163  c2.701-0.154,4.411,3.389,4.966,4.561c1.599,3.375,3,5.846,4.485,8.461c1.943,3.425,3.952,6.965,6.387,12.615  c0.328,0.761-0.023,1.644-0.784,1.972C421.634,793.37,421.432,793.409,421.234,793.409z"/><path fill="#000000" d="M400.944,766.701c0.973-0.222,2.12,1.257,3.293,3.597l0,0c0,0,2.362-7.406,6.147,0.584  c0.313,0.661,0.618,1.28,0.92,1.883c1.884-1.357,3.116-3.564,3.116-6.064c0-4.129-3.347-7.475-7.475-7.475  c-1.265,0-2.455,0.317-3.5,0.872c-1.045-0.555-2.235-0.872-3.5-0.872c-4.129,0-7.475,3.347-7.475,7.475  c0,3.65,2.618,6.685,6.077,7.34C398.375,769.963,398.908,767.166,400.944,766.701z"/><path fill="#000000" d="M522.944,760.226c-0.384,0-0.758,0.035-1.126,0.091c-1.131-0.688-2.453-1.091-3.874-1.091  c-1.265,0-2.455,0.317-3.5,0.872c-1.045-0.555-2.235-0.872-3.5-0.872c-4.129,0-7.475,3.347-7.475,7.475  c0,3.65,2.618,6.685,6.077,7.34c-0.17-4.078,0.363-6.875,2.398-7.34c0.973-0.222,2.12,1.257,3.293,3.597l0,0  c0,0,2.147-6.717,5.625-0.431l0,0l0,0c0.171,0.309,0.345,0.64,0.522,1.015c0.313,0.661,0.618,1.28,0.92,1.883  c-1.22-4.924,0.822-4.924,2.885-4.223c0.888,0.805,2.027,2.262,3.299,4.161c1.197-1.325,1.932-3.076,1.932-5.003  C530.419,763.573,527.072,760.226,522.944,760.226z"/><path fill="#000000" d="M641.602,764.234c-0.013,0.001-0.025,0.003-0.037,0.004c-1.249-2.383-3.743-4.012-6.621-4.012  c-0.384,0-0.758,0.035-1.126,0.091c-1.131-0.688-2.453-1.091-3.874-1.091c-1.265,0-2.455,0.317-3.5,0.872  c-1.045-0.555-2.235-0.872-3.5-0.872c-4.129,0-7.475,3.347-7.475,7.475c0,3.65,2.618,6.685,6.077,7.34  c-0.17-4.078,0.363-6.875,2.398-7.34c0.973-0.222,2.12,1.257,3.293,3.597l0,0c0,0,2.147-6.717,5.625-0.431  c0.101,0.182-0.101-0.196-0.226-0.419c0.137-0.087,2.549-1.587,4.552-0.906c0.888,0.805,2.027,2.262,3.299,4.161  c0.318-0.352,0.6-0.735,0.847-1.142c0.382,0.087,0.957,0.279,1.899,0.2c0.846-0.07,2.48,1.831,4.426,4.74  c1.167-1.385,1.841-3.19,1.751-5.143C649.222,767.235,645.726,764.045,641.602,764.234z"/><path fill="#000000" d="M722.126,793.917c1.979-1.079,3.899-1.594,7.222,2.625c0.675-1.124,1.071-2.435,1.071-3.841  c0-4.129-3.347-7.475-7.475-7.475c-4.129,0-7.475,3.347-7.475,7.475s3.347,7.475,7.475,7.475c0.277,0,0.55-0.018,0.819-0.047  C721.992,796.956,720.849,794.613,722.126,793.917z"/><polygon fill="#000000" points="322,926 319,926 319,918 311,918 311,915 322,915 "/><polygon fill="#000000" points="188.689,933.028 180.912,925.25 188.689,917.472 190.811,919.593 185.154,925.25 190.811,930.907   "/><polygon fill="#000000" points="199.689,933.028 191.912,925.25 199.689,917.472 201.811,919.593 196.154,925.25 201.811,930.907   "/><polygon fill="#000000" points="282,972 271,972 271,961 274,961 274,969 282,969 "/><polygon fill="#000000" points="398,978 395,978 395,970 387,970 387,967 398,967 "/><polygon fill="#000000" points="433,929 422,929 422,918 425,918 425,926 433,926 "/><path fill="#000000" d="M85.028,77.772c-0.711-1.039-2.49-4.231-2.186-6.519c0.378-3.296,1.479-14.257-0.225-16.935  c-0.113-0.178-12.96-17.651-17.127-17.313c-1.227,0.103-2.188,0.506-2.916,1.017c-0.787-1.33-1.806-2.634-3.176-3.829  c-5.358-4.67-15.335-5.604-20.345-3.297c-2.259,1.042-3.49,2.736-3.468,4.77c0.041,3.764,3.691,4.651,6.912,5.434  c3.154,0.767,5.585,1.51,6.987,3.287c-1.557,0.652-3.828,2.056-4.781,4.915c-0.811,2.432-1.346,6.656-1.634,9.477  c-0.483-0.425-0.96-0.856-1.417-1.268c-2.51-2.27-5.105-4.615-7.697-5.489c-3.066-1.031-6.212-0.168-7.837,1.075  c-1.09,0.832-1.654,1.893-1.59,2.986c0.086,1.464,1.24,2.294,2.577,3.255c1.578,1.135,3.739,2.689,5.139,5.928  c2.692,6.23,21.722,19.326,23.906,20.814c2.523,1.652,3.627,4.366,3.636,4.389L60.383,92L86,79.191L85.028,77.772z M47.549,50.251  c0.6-1.801,2.1-2.697,3.108-3.111c0.035,0.191,0.07,0.382,0.094,0.587c1.241,10.625,0.936,12.744-2.038,14.176  c-0.663,0.319-1.685-0.114-2.839-0.89C46.059,58.844,46.622,53.033,47.549,50.251z M61.843,87.915  c-0.728-1.239-2.026-3.019-4.027-4.329c-5.673-3.866-20.831-14.908-22.819-19.51c-1.729-4.001-4.384-5.91-6.141-7.174  c-0.465-0.334-1.083-0.778-1.3-1.031c0.08-0.129,0.303-0.387,0.802-0.66c0.997-0.544,2.808-0.963,4.64-0.346  c2,0.674,4.36,2.808,6.643,4.871c3.662,3.311,7.12,6.439,10.375,4.869c5.192-2.5,4.868-7.355,3.715-17.227  c-0.797-6.83-6.419-8.196-10.524-9.194c-3.455-0.84-4.607-1.326-4.62-2.552c-0.003-0.299-0.013-1.21,1.725-2.012  c4.081-1.882,12.782-0.945,17.116,2.834c1.646,1.436,2.669,3.051,3.407,4.729c0.02,0.055,0.043,0.107,0.069,0.158  c0.56,1.307,0.955,2.648,1.344,3.971c0.474,1.61,0.922,3.132,1.646,4.469c0.395,0.728,1.305,0.999,2.033,0.604  s0.999-1.306,0.604-2.034c-0.573-1.058-0.978-2.432-1.406-3.887c-0.336-1.142-0.702-2.384-1.203-3.654  c0.28-0.315,0.802-0.705,1.715-0.805c2.341,0.725,12.365,12.648,14.449,15.925c0.754,1.208,0.493,8.722-0.221,14.954  c-0.346,2.591,0.886,5.43,1.804,7.118L61.843,87.915z M12,65h8v8h3V62H12V65z M58,21h-8v-8h-3v11h11V21z"/><text x="0" y="115" fill="#000000" font-size="5px" font-weight="bold" font-family="'Helvetica Neue', Helvetica, Arial-Unicode, Arial, Sans-serif">Created by Julie Muckensturm</text><text x="0" y="120" fill="#000000" font-size="5px" font-weight="bold" font-family="'Helvetica Neue', Helvetica, Arial-Unicode, Arial, Sans-serif">from the Noun Project</text></svg>