<?xml version="1.0" encoding="UTF-8"?>
<svg id="Capa_1" xmlns="http://www.w3.org/2000/svg" version="1.1" viewBox="0 0 99.66 157.02">
  <!-- Generator: Adobe Illustrator 30.1.0, SVG Export Plug-In . SVG Version: 2.1.1 Build 136)  -->
  <defs>
    <style>
      .st0 {
        fill: #010101;
      }
    </style>
  </defs>
  <path d="M82.24,157.02h-44.06c-.52-.49-1.49-1.31-1.5-2.13l-.13-16.5c-2.14-3.69-5.65-6.55-9.03-9.1-9.39-7.08-8.58-13.1-13.3-23.38-2.45-5.32-5.89-6.36-10.35-9.7C1.56,94.49,0,91.87,0,88.91c0-4.16,2.38-8.31,6.25-9.97,2.22-.95,4.77-.38,6.99.36,5.64,1.87,10.25,5.37,14.48,9.73l.03-56.16c0-6.2,5.26-10.83,11.11-10.67s10.52,4.91,10.52,10.95v22.31c3.62-1.98,7.37-2.31,11.05-.35,2.8,1.49,5.43,4.64,5.57,8.4l.22,5.69c4.03-2.29,8.26-2.13,11.81.19,3.21,2.09,5.08,5.8,4.84,10.16,3.74-2.22,7.97-2.31,11.66-.04,3.19,1.95,5.22,5.62,5.13,9.78-.27,12.4-2.14,25.37-8.47,36.2l-5.89,10.06c-1.18,2.01-1.67,4.13-1.62,6.46l.26,12.81c.02.92-1.06,1.73-1.69,2.21ZM78.73,140.88c-.06-2.56.69-4.99,1.89-7.04l4.74-8.09c3.1-5.29,5.53-10.62,7.02-16.63,1.64-6.66,2.26-13.27,2.34-20.17.04-3.44-2.49-6.13-5.83-6.21-3.16-.08-6,2.47-6,5.89l-.02,6.16c0,1.54-1.17,2.64-2.57,2.57-1.3-.06-2.31-1.1-2.31-2.58l-.03-16.54c0-3.33-2.88-5.8-5.93-5.78s-5.87,2.56-5.88,5.88l-.02,16.44c0,1.56-1.16,2.66-2.6,2.57-1.25-.08-2.3-1.1-2.3-2.59v-30.03c0-3.52-2.73-6.13-6.04-6.06s-5.8,2.64-5.79,6.06v30.03c0,1.57-1.19,2.65-2.53,2.59s-2.37-1.05-2.37-2.62v-61.73c0-3.42-2.68-5.94-5.89-5.97s-5.95,2.4-5.95,5.85v62.16c0,1.28-.64,2.25-1.57,2.59s-2.08.04-2.75-.68l-5.05-5.38c-3.15-3.36-6.93-5.91-11.25-7.56-1.1-.42-2.79-.9-3.87-.53-1.98.69-3.04,2.87-3.26,4.84-.16,1.5.61,3.07,1.81,3.88l4.74,3.21c3.04,2.06,5.38,4.6,6.99,7.96,1.75,3.65,3.1,7.41,4.34,11.28,3.19,9.9,9.37,10.39,15.82,18,.77,1.5,2.79,2.93,2.8,4.73l.14,14.74h37.45s-.27-11.24-.27-11.24Z"/>
  <path d="M51.73,44.39c6.2-7.27,5.51-17.85-1.32-24.24-6.72-6.28-17.29-6.24-23.98.2s-7.24,16.91-1.09,24.05c.89,1.03.66,2.57-.28,3.42-.83.75-2.42.91-3.31-.1-7.99-9.04-7.28-22.62,1.2-30.85,8.56-8.3,22.12-8.42,30.8-.35,8.81,8.18,9.63,21.95,1.62,31.12-.86.98-2.36.97-3.28.24s-1.38-2.29-.35-3.5Z"/>
  <path class="st0" d="M64.93,42.73c-.67.67-2.46.44-3.02-.04-.62-.52-1.11-2.4-.41-3.11l9.83-9.99-10.09-10.08c-.54-.54-.39-2.41.07-3s2.49-1.02,3.2-.32l11.92,11.76c.67.66.61,2.65.01,3.25l-11.51,11.54h0Z"/>
  <path class="st0" d="M12.11,16.26c.67-.67,2.46-.44,3.02.04.62.52,1.11,2.4.41,3.11l-9.83,9.99,10.09,10.08c.54.54.39,2.41-.07,3s-2.49,1.02-3.2.32L.61,31.03c-.67-.66-.61-2.65-.01-3.25l11.51-11.54h0Z"/>
</svg>