<?xml version="1.0" encoding="utf-8"?>
<!-- Generator: Adobe Illustrator 26.5.0, SVG Export Plug-In . SVG Version: 6.00 Build 0)  -->
<svg version="1.1" id="Layer_1" xmlns="http://www.w3.org/2000/svg" xmlns:xlink="http://www.w3.org/1999/xlink" x="0px" y="0px"
	 viewBox="0 0 458.5 447.1" style="enable-background:new 0 0 458.5 447.1;" xml:space="preserve">
<style type="text/css">
	.st0{fill:#F59E0B;}
</style>
<path class="st0" d="M208.8,447.1c-3.3-1.8-6.1-3-8.6-4.6C135.9,403.7,71.7,364.9,7.4,326.1c-9.3-5.6-9.2-5.6-3.3-14.7
	c11.4-17.3,23-34.6,34.1-52.1c3.1-4.9,5.8-5.3,10.6-2.3c51.7,31.4,103.6,62.6,155.2,94.1c2.7,1.6,5.6,5.4,5.6,8.3
	c0.4,28,0.2,56,0.1,84C209.9,444.1,209.5,444.8,208.8,447.1L208.8,447.1z"/>
<path class="st0" d="M249.6,446.1c-0.3-4-0.7-6.5-0.7-9c-0.1-24.9,0.1-49.8-0.1-74.6c-0.1-5.9,2-9.5,7.1-12.5
	c51.3-30.6,102.5-61.3,153.6-92.1c5.2-3.1,8-2.7,11.3,2.4c11.7,18.1,23.5,36,35.7,53.8c3.3,4.8,2.9,7.3-2.2,10.4
	c-65.9,39.5-131.7,79.1-197.6,118.7C254.9,444.2,252.9,444.7,249.6,446.1L249.6,446.1z"/>
<path class="st0" d="M209.9,311c-5.2-3-9.9-5.6-14.5-8.4c-41.6-25.1-83.2-50.3-124.9-75.1c-6.4-3.8-6.8-6.8-2.7-12.6
	c8.2-11.6,16-23.6,23.6-35.7c3.1-4.9,5.7-6.3,11.2-2.9c34.2,20.9,68.5,41.3,102.7,62.2c2.7,1.6,5.7,5.3,5.7,8.1
	c0.5,20,0.2,39.9,0.2,59.9C211.2,307.8,210.5,308.9,209.9,311L209.9,311z"/>
<path class="st0" d="M250.1,310.1c-0.3-3-0.8-5.5-0.9-7.9c-0.1-17.6,0.1-35.2-0.1-52.9c-0.1-5.2,1.6-8.6,6.2-11.4
	c34.1-20.3,68.1-40.8,102-61.5c5-3.1,8-2.9,11.3,2.3c8,12.7,16.4,25.2,24.7,37.7c2.5,3.8,3.3,6.7-1.5,9.5
	c-45.9,27.5-91.6,55.1-137.4,82.7C253.6,309.4,252.3,309.5,250.1,310.1L250.1,310.1z"/>
<path class="st0" d="M210.3,200c-2.8-1.5-4.9-2.4-6.8-3.6c-26.9-16.2-53.6-32.7-80.7-48.7c-5.9-3.5-6.8-6.4-2.8-12.1
	c8.5-12.1,16.6-24.4,24.6-36.9c2.9-4.5,5.7-5,10.2-2.2c17.1,10.4,34.4,20.5,51.3,31c2.4,1.5,5.1,5,5.2,7.7
	c0.4,20.2,0.2,40.4,0.1,60.6C211.5,196.8,211,197.8,210.3,200L210.3,200z"/>
<path class="st0" d="M247.2,199.6c0-6.4,0-12,0-17.6c0-14.5,0.2-29-0.1-43.5c-0.1-5.5,1.5-9.1,6.5-11.9
	c16.7-9.6,33.1-19.4,49.5-29.5c5.1-3.1,8.1-2.8,11.4,2.4c8.1,12.7,16.5,25.1,24.9,37.6c2.2,3.2,4,6.2-0.7,9
	c-29.1,17.5-58.2,35.1-87.3,52.7C250.8,199,249.9,199,247.2,199.6L247.2,199.6z"/>
<path class="st0" d="M249.4,88.5V0c2.5,2.8,4.1,4.2,5.2,5.9c11.2,16.8,22.1,33.8,33.5,50.5c3.7,5.5,2.9,8.4-2.7,11.5
	c-9.7,5.4-19.1,11.5-28.7,17.2C254.8,86.2,252.7,87,249.4,88.5z"/>
<path class="st0" d="M210.8,89.4c-13.9-8.5-26.7-16.1-39.3-24.2c-1.1-0.7-1.6-4.6-0.8-5.9c12.6-19.5,25.4-38.8,40.1-57.7V89.4z"/>
</svg>
